<svg xmlns="http://www.w3.org/2000/svg" width="24" height="24" viewBox="0 0 24 24">
  <g fill="#FFF" fill-rule="evenodd">
    <path d="M11.9932065,5 C15.8570902,5 18.9892437,8.13432836 18.9892437,12 C18.9892437,15.8656716 15.8570902,19 11.9932065,19 C8.12932284,19 4.99716938,15.8656716 4.99716938,12 C4.99716938,8.13432836 8.12932284,5 11.9932065,5 Z M11.9932065,15.9991708 C14.2012792,15.9991708 15.990942,14.2079543 15.990942,11.9995854 C15.990942,9.79049098 14.2012792,8 11.9932065,8 C9.785859,8 7.99547101,9.79049098 7.99547101,11.9995854 C7.99547101,14.2079543 9.785859,15.9991708 11.9932065,15.9991708 Z"/>
    <path fill-rule="nonzero" d="M3.27478098 14.2230042C4.26389658 18.1184557 7.79223169 21 11.9932065 21 12.7368495 21 13.4594154 20.909707 14.1505506 20.7394804 14.2835554 20.7067213 14.4350688 20.6622925 14.6050908 20.6061939 15.4055756 20.3420679 16.2830968 20.6566097 16.7335205 21.3691101 17.1133061 21.969872 16.9341694 22.7647628 16.3334075 23.1445483 16.2635816 23.1886904 16.1896676 23.2260066 16.1126886 23.2559805 15.7879959 23.3824348 15.5082996 23.4789644 15.2736085 23.5455922 14.2310128 23.8415809 13.1305996 24 11.9932065 24 6.29301511 24 1.52162431 20.0210793.301966936 14.6876564.292926977 14.6481257.283849101 14.6063044.274733307 14.5621927L.274759065 14.5621874C.129542831 13.8594791.581479411 13.1721005 1.28418767 13.0268843 1.37069165 13.009008 1.45879316 13 1.54712492 13L1.70241049 12.9999868C2.44459009 12.9999868 3.09212626 13.5036518 3.27478098 14.2230042zM.322207605 9.22533424C1.57361757 3.93570387 6.3240558 0 11.9932065 0 13.2151288 0 14.3943704.182840984 15.5050939.522670872 15.6437567.565095239 15.8015715.619494061 15.9785383.685867339L15.9785506.685834423C16.6479753.936909268 16.9871149 1.68312159 16.73604 2.35254629 16.7066996 2.43077464 16.669855 2.50597888 16.6260216 2.5771067 16.1861256 3.29091967 15.3176157 3.6147735 14.517759 3.36324504 14.4151188 3.33096637 14.3211143 3.30386802 14.2357459 3.2819484 13.5188713 3.09788021 12.767463 3 11.9932065 3 7.96584536 3 4.55667637 5.64829463 3.41029112 9.29936077 3.38143091 9.3912762 3.35227239 9.49610386 3.32281553 9.61384374L3.32280476 9.61384104C3.11898178 10.4285273 2.38692099 11 1.54712492 11 .830075346 11 .248791818 10.4187165.248791818 9.7016669.248791818 9.61565011.257339906 9.52984621.274310074 9.44552004.290380329 9.36581838.306336324 9.29242113.322207605 9.22533424zM20.7666011 3.81822583C22.7641627 5.9617221 23.986413 8.83804426 23.986413 12 23.986413 15.1805057 22.7497797 18.0720166 20.7313644 20.2194235 20.6393347 20.3173347 20.5300685 20.4262229 20.403566 20.5460882L20.4035517 20.5460731C19.88534 21.0370959 19.0671939 21.0150549 18.5761711 20.4968433 18.5184175 20.4358917 18.4667403 20.3694578 18.421872 20.2984831 17.9724719 19.5876018 18.0637091 18.6622384 18.6432866 18.0528103 18.7321071 17.9594286 18.8094947 17.8735636 18.8754563 17.7952216 20.1937622 16.2294801 20.9881114 14.2075577 20.9881114 12 20.9881114 9.63529826 20.0766462 7.4836012 18.5860597 5.87744093 18.5762336 5.8668529 18.5661295 5.85607963 18.5557476 5.84512111L18.5557582 5.84511113C17.9858152 5.24351307 17.8917412 4.3338208 18.3265134 3.62832214 18.6999944 3.02227985 19.4940549 2.83375164 20.1000972 3.20723262 20.1708216 3.25081743 20.2371669 3.30113754 20.298207 3.35749074 20.4845644 3.52954691 20.6406971 3.68312378 20.7666011 3.81822583z"/>
  </g>
</svg>
