<svg xmlns="http://www.w3.org/2000/svg" xmlns:xlink="http://www.w3.org/1999/xlink" width="1318" height="440" viewBox="0 0 1318 440">
  <defs>
    <rect id="background-grey-dark-a" width="1318" height="440" x="0" y="0" rx="4"/>
  </defs>
  <g fill="none" fill-rule="evenodd">
    <mask id="background-grey-dark-b" fill="#fff">
      <use xlink:href="#background-grey-dark-a"/>
    </mask>
    <use fill="#161F2E" fill-rule="nonzero" xlink:href="#background-grey-dark-a"/>
    <g mask="url(#background-grey-dark-b)" opacity=".03">
      <g transform="translate(97 -342)">
        <path fill="#FFF" d="M562.181556,234.351411 C743.301103,234.351411 890.120797,381.258266 890.120797,562.443387 C890.120797,743.628508 743.301103,890.535362 562.181556,890.535362 C381.062008,890.535362 234.242315,743.628508 234.242315,562.443387 C234.242315,381.258266 381.062008,234.351411 562.181556,234.351411 Z M562.181556,749.885652 C665.684962,749.885652 749.575408,665.93083 749.575408,562.423955 C749.575408,458.883076 665.684962,374.962258 562.181556,374.962258 C458.712141,374.962258 374.787704,458.883076 374.787704,562.423955 C374.787704,665.93083 458.712141,749.885652 562.181556,749.885652 Z"/>
        <path fill="#FFF" fill-rule="nonzero" d="M153.505359 666.636219C199.870152 849.217132 365.260861 984.275927 562.181556 984.275927 597.039821 984.275927 630.910097 980.043868 663.307059 972.0653 669.541658 970.529872 676.643849 968.447481 684.613632 965.818125 722.136356 953.438464 763.270163 968.181126 784.383774 1001.57622 802.186223 1029.7341 793.789191 1066.99086 765.628479 1084.79151 762.355388 1086.86046 758.890668 1088.60949 755.28228 1090.01437 740.062309 1095.94132 726.951542 1100.46569 715.9504 1103.58855 667.078727 1117.46163 615.496856 1124.88677 562.181556 1124.88677 294.985083 1124.88677 71.3261395 938.393636 14.1547001 688.4146 13.730952 686.561785 13.3054266 684.601612 12.8781238 682.534081L12.8793311 682.533832C6.07232021 649.597697 27.2568474 617.380068 60.1962969 610.573742 64.2511713 609.735877 68.3809293 609.313052 72.5214805 609.313052L79.8004917 609.313052C114.590161 609.313052 144.943418 632.919971 153.505359 666.636219zM15.1034815 432.394019C73.7633234 184.467551 296.440115 0 562.181556 0 619.459161 0 674.736112 8.56980852 726.801279 24.4977313 733.301095 26.4861733 740.698662 29.0358615 748.993981 32.1467957L748.994559 32.145253C780.373842 43.9132018 796.271009 78.8883839 784.501876 110.264508 783.126546 113.931094 781.399452 117.455937 779.344762 120.789719 758.724639 154.246334 718.013237 169.425454 680.519951 157.636244 675.708695 156.123334 671.302232 154.853227 667.300587 153.825848 633.697094 145.19852 598.47483 140.610847 562.181556 140.610847 373.399001 140.610847 213.594205 264.737163 159.857396 435.863664 158.504574 440.171766 157.137768 445.085068 155.756978 450.603569L155.756473 450.603443C146.202271 488.788016 111.886922 515.573105 72.5214805 515.573105 38.9097819 515.573105 11.6621164 488.328182 11.6621164 454.719866 11.6621164 450.688234 12.0628081 446.666581 12.8582847 442.71419 13.6115779 438.978551 14.3595152 435.538401 15.1034815 432.394019zM973.434426 178.961322C1067.07013 279.427597 1124.36311 414.241629 1124.36311 562.443387 1124.36311 711.514585 1066.39592 847.040516 971.782707 947.690088 967.468813 952.279211 962.346963 957.382833 956.417158 963.000955L956.416485 963.000244C932.125314 986.014621 893.774713 984.981556 870.75802 960.69283 868.050819 957.836014 865.62845 954.722236 863.525248 951.395632 842.459618 918.076426 846.736364 874.704381 873.904058 846.140316 878.067519 841.763487 881.695066 837.738968 884.787013 834.067057 946.582603 760.680315 983.817722 665.91224 983.817722 562.443387 983.817722 451.609149 941.092792 350.7585 871.221548 275.477315 870.760948 274.981051 870.287322 274.476105 869.80067 273.962476L869.801164 273.962008C843.085089 245.764937 838.67537 203.127404 859.055315 170.060483 876.562236 141.655109 913.783822 132.818739 942.192055 150.323898 945.507264 152.366731 948.617197 154.725248 951.478455 157.366539 960.213957 165.43086 967.532678 172.629051 973.434426 178.961322z"/>
      </g>
    </g>
  </g>
</svg>
