<svg xmlns="http://www.w3.org/2000/svg" width="24" height="24" viewBox="0 0 24 24">
  <g fill="none" fill-rule="evenodd">
    <rect width="24" height="24"/>
    <path fill="#FFF" d="M12,24 C5.372583,24 0,18.627417 0,12 C0,5.372583 5.372583,0 12,0 C18.627417,0 24,5.372583 24,12 C24,18.627417 18.627417,24 12,24 Z M15.9986085,7.12885474 C16.002492,6.25327018 16.0022978,5.37729727 15.9988998,4.50171271 C15.1688007,4.50132436 14.3391872,4.49680979 13.5090881,4.50423699 C12.7242805,4.52768365 11.8920941,4.71579088 11.3073355,5.27283101 C10.8237421,5.71938545 10.5772367,6.37079473 10.5268482,7.01715545 C10.495586,7.83361366 10.5262657,8.65157673 10.5108288,9.46871455 C10.0077208,9.47356893 9.50422447,9.46594755 9.00087379,9.4722097 C9.00058253,10.3124544 9.00189321,11.1528932 9,11.9933321 C9.50344777,12.0011476 10.0073324,11.992167 10.5108773,11.9976525 C10.5233531,14.4982408 10.502285,16.9998 10.5217997,19.5 C11.5538409,19.4952913 12.586853,19.5013592 13.6190884,19.4970388 C13.6272438,16.997033 13.6178748,14.4972214 13.624137,11.9972156 C14.3188473,11.9929437 15.0141887,12.0001767 15.7092874,11.9937204 C15.8325402,11.1532816 15.9378317,10.3095417 15.995259,9.46186987 C15.2087523,9.45895724 14.4218087,9.46327764 13.6351079,9.45973395 C13.6347195,8.87400443 13.629671,8.28764384 13.6376321,7.70181724 C13.6996226,7.3645349 14.0489923,7.10667022 14.3890417,7.12788387 C14.9254021,7.13011688 15.4620539,7.12788387 15.9986085,7.12885474 Z"/>
  </g>
</svg>
