<svg xmlns="http://www.w3.org/2000/svg" width="24" height="24" viewBox="0 0 24 24">
  <g fill="none" fill-rule="evenodd">
    <rect width="24" height="24"/>
    <path fill="#FFF" d="M12,24 C5.372583,24 0,18.627417 0,12 C0,5.372583 5.372583,0 12,0 C18.627417,0 24,5.372583 24,12 C24,18.627417 18.627417,24 12,24 Z M8.57377049,17.9283934 L8.57377049,8.37101639 L5.96721311,8.37101639 L5.96721311,17.9283934 L8.57377049,17.9283934 Z M7.2704918,7.26931148 C8.11067213,7.26931148 8.79098361,6.58291803 8.79098361,5.73665574 C8.79098361,4.89039344 8.10980328,4.204 7.2704918,4.204 C6.43118033,4.204 5.75,4.89039344 5.75,5.73665574 C5.75,6.58291803 6.43118033,7.26931148 7.2704918,7.26931148 Z M19,17.9283934 L19,12.0558197 C19,7.4917377 14.1309508,7.65768852 12.9180328,9.90454098 L12.9180328,8.37101639 L10.3114754,8.37101639 L10.3114754,17.9283934 L12.9180328,17.9283934 L12.9180328,13.0593443 C12.9180328,10.3546066 16.3934426,10.1330492 16.3934426,13.0593443 L16.3934426,17.9283934 L19,17.9283934 Z"/>
  </g>
</svg>
