<svg xmlns="http://www.w3.org/2000/svg" width="24" height="24" viewBox="0 0 24 24">
  <path fill="#FFF" fill-rule="evenodd" d="M12,24 C5.372583,24 0,18.627417 0,12 C0,5.372583 5.372583,0 12,0 C18.627417,0 24,5.372583 24,12 C24,18.627417 18.627417,24 12,24 Z M18.4027589,7.58240499 C19.0392191,7.15954712 19.7336501,6.30949907 19.9638879,5.51158175 C19.36808,5.90321243 18.4955337,6.28941384 17.7931732,6.44263528 C17.2308038,5.7785369 16.4367206,5.44221786 15.5498843,5.44221786 C13.8471466,5.44221786 12.4665464,6.9720174 12.4665464,8.85897278 C12.4665464,9.12677722 12.4938233,9.38758676 12.5464233,9.63765415 C9.98390075,9.49517486 7.71195572,8.13483492 6.19128923,6.06759452 C5.92588457,6.57222601 5.77379538,7.15921403 5.77379538,7.78542341 C5.77379538,8.97089105 6.31813041,10.0167107 7.14545354,10.6294299 C6.64004252,10.6116929 6.1646135,10.4579718 5.74892308,10.2020753 C5.74862251,10.2163149 5.74862251,10.2305545 5.74862251,10.2450439 C5.74862251,11.1085267 6.03777783,11.897337 6.51460518,12.4990005 C6.79631732,12.8544664 7.14353655,13.1446086 7.53533488,13.3462324 C7.75177801,13.4576164 8.22195046,13.5954307 8.22195046,13.5954307 C8.22195046,13.5954307 7.69084057,13.7153431 7.40965591,13.7153431 C7.21097813,13.7153431 7.01778578,13.6938588 6.82955286,13.6539712 C7.22187385,15.0113966 8.36051393,15.9993419 9.70977951,16.0268218 C8.65454803,16.9433192 7.32512017,17.4895869 5.88049827,17.4895869 C5.63162504,17.4895869 5.38620839,17.4733488 5.14499974,17.4417885 C6.50951933,18.4112472 8.16616273,18.9422179 9.90737358,18.9422179 C15.5786323,18.9422179 18.6440427,13.7704695 18.6440427,9.25518345 C18.6440427,9.10704163 18.6409619,8.95973254 18.6350256,8.81317289 C19.2375212,8.33135807 19.6807252,8.0986157 20.1449997,7.45131494 C19.55873,7.58240499 19.0263697,7.49988192 18.4027589,7.58240499 Z"/>
</svg>
